<mxfile host="app.diagrams.net" modified="2023-04-13T13:47:53.856Z" agent="Mozilla/5.0 (Windows NT 10.0; Win64; x64) AppleWebKit/537.36 (KHTML, like Gecko) Chrome/111.0.0.0 Safari/537.36" etag="gWrZb4z85It8IKRAyuf_" version="21.1.7" type="google">
  <diagram name="Página-1" id="-hb__qjzb1PbktpBs-px">
    <mxGraphModel grid="1" page="1" gridSize="10" guides="1" tooltips="1" connect="1" arrows="1" fold="1" pageScale="1" pageWidth="827" pageHeight="1169" math="0" shadow="0">
      <root>
        <mxCell id="0" />
        <mxCell id="1" parent="0" />
        <mxCell id="leUHGMja3gvNcQxxa3rt-2" value="clientes" style="rounded=0;whiteSpace=wrap;html=1;" vertex="1" parent="1">
          <mxGeometry x="60" y="460" width="120" height="60" as="geometry" />
        </mxCell>
        <mxCell id="leUHGMja3gvNcQxxa3rt-4" value="editoras" style="rounded=0;whiteSpace=wrap;html=1;" vertex="1" parent="1">
          <mxGeometry x="630" y="790" width="120" height="60" as="geometry" />
        </mxCell>
        <mxCell id="leUHGMja3gvNcQxxa3rt-6" value="questionarios" style="rounded=0;whiteSpace=wrap;html=1;" vertex="1" parent="1">
          <mxGeometry x="50" y="180" width="120" height="60" as="geometry" />
        </mxCell>
        <mxCell id="leUHGMja3gvNcQxxa3rt-30" value="" style="edgeStyle=entityRelationEdgeStyle;fontSize=12;html=1;endArrow=ERzeroToMany;startArrow=ERmandOne;rounded=0;entryX=0;entryY=0.5;entryDx=0;entryDy=0;exitX=1;exitY=0.5;exitDx=0;exitDy=0;" edge="1" parent="1" source="leUHGMja3gvNcQxxa3rt-2" target="leUHGMja3gvNcQxxa3rt-135">
          <mxGeometry width="100" height="100" relative="1" as="geometry">
            <mxPoint x="220" y="480" as="sourcePoint" />
            <mxPoint x="650" y="490" as="targetPoint" />
          </mxGeometry>
        </mxCell>
        <mxCell id="leUHGMja3gvNcQxxa3rt-33" value="física" style="rounded=0;whiteSpace=wrap;html=1;" vertex="1" parent="1">
          <mxGeometry x="20" y="600" width="80" height="40" as="geometry" />
        </mxCell>
        <mxCell id="leUHGMja3gvNcQxxa3rt-35" value="" style="triangle;whiteSpace=wrap;html=1;rotation=-90;" vertex="1" parent="1">
          <mxGeometry x="108.75" y="548.75" width="22.5" height="45" as="geometry" />
        </mxCell>
        <mxCell id="leUHGMja3gvNcQxxa3rt-38" value="jurídica" style="rounded=0;whiteSpace=wrap;html=1;" vertex="1" parent="1">
          <mxGeometry x="140" y="600" width="80" height="40" as="geometry" />
        </mxCell>
        <mxCell id="leUHGMja3gvNcQxxa3rt-39" value="" style="endArrow=none;html=1;rounded=0;exitX=1;exitY=0.5;exitDx=0;exitDy=0;entryX=0.5;entryY=1;entryDx=0;entryDy=0;" edge="1" parent="1" source="leUHGMja3gvNcQxxa3rt-35" target="leUHGMja3gvNcQxxa3rt-2">
          <mxGeometry width="50" height="50" relative="1" as="geometry">
            <mxPoint x="430" y="690" as="sourcePoint" />
            <mxPoint x="480" y="640" as="targetPoint" />
          </mxGeometry>
        </mxCell>
        <mxCell id="leUHGMja3gvNcQxxa3rt-40" value="" style="endArrow=none;html=1;rounded=0;exitX=0.5;exitY=0;exitDx=0;exitDy=0;entryX=-0.011;entryY=0.042;entryDx=0;entryDy=0;entryPerimeter=0;" edge="1" parent="1" source="leUHGMja3gvNcQxxa3rt-33" target="leUHGMja3gvNcQxxa3rt-35">
          <mxGeometry width="50" height="50" relative="1" as="geometry">
            <mxPoint x="430" y="690" as="sourcePoint" />
            <mxPoint x="480" y="640" as="targetPoint" />
          </mxGeometry>
        </mxCell>
        <mxCell id="leUHGMja3gvNcQxxa3rt-41" value="" style="endArrow=none;html=1;rounded=0;exitX=0.033;exitY=1.008;exitDx=0;exitDy=0;exitPerimeter=0;entryX=0.5;entryY=0;entryDx=0;entryDy=0;" edge="1" parent="1" source="leUHGMja3gvNcQxxa3rt-35" target="leUHGMja3gvNcQxxa3rt-38">
          <mxGeometry width="50" height="50" relative="1" as="geometry">
            <mxPoint x="430" y="690" as="sourcePoint" />
            <mxPoint x="480" y="640" as="targetPoint" />
          </mxGeometry>
        </mxCell>
        <mxCell id="leUHGMja3gvNcQxxa3rt-58" value="perguntas" style="rounded=0;whiteSpace=wrap;html=1;" vertex="1" parent="1">
          <mxGeometry x="400" y="180" width="120" height="60" as="geometry" />
        </mxCell>
        <mxCell id="leUHGMja3gvNcQxxa3rt-59" value="respostas" style="rounded=0;whiteSpace=wrap;html=1;" vertex="1" parent="1">
          <mxGeometry x="680" y="180" width="120" height="60" as="geometry" />
        </mxCell>
        <mxCell id="leUHGMja3gvNcQxxa3rt-62" value="" style="edgeStyle=entityRelationEdgeStyle;fontSize=12;html=1;endArrow=ERoneToMany;startArrow=ERmandOne;rounded=0;exitX=1;exitY=0.5;exitDx=0;exitDy=0;entryX=0;entryY=0.5;entryDx=0;entryDy=0;" edge="1" parent="1" source="leUHGMja3gvNcQxxa3rt-6" target="leUHGMja3gvNcQxxa3rt-58">
          <mxGeometry width="100" height="100" relative="1" as="geometry">
            <mxPoint x="170" y="210" as="sourcePoint" />
            <mxPoint x="210" y="210" as="targetPoint" />
          </mxGeometry>
        </mxCell>
        <mxCell id="leUHGMja3gvNcQxxa3rt-64" value="" style="edgeStyle=entityRelationEdgeStyle;fontSize=12;html=1;endArrow=ERoneToMany;startArrow=ERmandOne;rounded=0;exitX=1;exitY=0.5;exitDx=0;exitDy=0;entryX=0;entryY=0.5;entryDx=0;entryDy=0;" edge="1" parent="1" source="leUHGMja3gvNcQxxa3rt-58" target="leUHGMja3gvNcQxxa3rt-59">
          <mxGeometry width="100" height="100" relative="1" as="geometry">
            <mxPoint x="440" y="210" as="sourcePoint" />
            <mxPoint x="480" y="210" as="targetPoint" />
          </mxGeometry>
        </mxCell>
        <mxCell id="leUHGMja3gvNcQxxa3rt-70" value="" style="endArrow=diamondThin;endFill=1;endSize=24;html=1;rounded=0;exitX=0.25;exitY=0;exitDx=0;exitDy=0;" edge="1" parent="1" source="leUHGMja3gvNcQxxa3rt-6">
          <mxGeometry width="160" relative="1" as="geometry">
            <mxPoint x="56" y="169.99999999999994" as="sourcePoint" />
            <mxPoint x="80" y="120" as="targetPoint" />
          </mxGeometry>
        </mxCell>
        <mxCell id="leUHGMja3gvNcQxxa3rt-74" value="" style="endArrow=diamondThin;endFill=0;endSize=24;html=1;rounded=0;exitX=0;exitY=0.5;exitDx=0;exitDy=0;" edge="1" parent="1" source="leUHGMja3gvNcQxxa3rt-2">
          <mxGeometry width="160" relative="1" as="geometry">
            <mxPoint x="-73" y="593.75" as="sourcePoint" />
            <mxPoint x="-20" y="490" as="targetPoint" />
          </mxGeometry>
        </mxCell>
        <mxCell id="leUHGMja3gvNcQxxa3rt-79" value="cod_clientes" style="text;align=center;fontStyle=1;verticalAlign=middle;spacingLeft=3;spacingRight=3;strokeColor=none;rotatable=0;points=[[0,0.5],[1,0.5]];portConstraint=eastwest;html=1;" vertex="1" parent="1">
          <mxGeometry x="90" y="105.99999999999994" width="80" height="26" as="geometry" />
        </mxCell>
        <mxCell id="leUHGMja3gvNcQxxa3rt-81" value="" style="endArrow=diamondThin;endFill=1;endSize=24;html=1;rounded=0;exitX=0.25;exitY=0;exitDx=0;exitDy=0;" edge="1" parent="1" source="leUHGMja3gvNcQxxa3rt-58">
          <mxGeometry width="160" relative="1" as="geometry">
            <mxPoint x="556" y="339.99999999999994" as="sourcePoint" />
            <mxPoint x="430" y="110" as="targetPoint" />
          </mxGeometry>
        </mxCell>
        <mxCell id="leUHGMja3gvNcQxxa3rt-82" value="cod_questionarios" style="text;align=center;fontStyle=1;verticalAlign=middle;spacingLeft=3;spacingRight=3;strokeColor=none;rotatable=0;points=[[0,0.5],[1,0.5]];portConstraint=eastwest;html=1;" vertex="1" parent="1">
          <mxGeometry x="50" y="89.99999999999994" width="80" height="26" as="geometry" />
        </mxCell>
        <mxCell id="leUHGMja3gvNcQxxa3rt-87" value="" style="endArrow=diamondThin;endFill=1;endSize=24;html=1;rounded=0;exitX=0;exitY=0;exitDx=0;exitDy=0;entryX=1;entryY=0.5;entryDx=0;entryDy=0;" edge="1" parent="1" source="leUHGMja3gvNcQxxa3rt-2" target="leUHGMja3gvNcQxxa3rt-88">
          <mxGeometry width="160" relative="1" as="geometry">
            <mxPoint x="370" y="690" as="sourcePoint" />
            <mxPoint y="460" as="targetPoint" />
          </mxGeometry>
        </mxCell>
        <mxCell id="leUHGMja3gvNcQxxa3rt-88" value="cod_clientes" style="text;align=center;fontStyle=1;verticalAlign=middle;spacingLeft=3;spacingRight=3;strokeColor=none;rotatable=0;points=[[0,0.5],[1,0.5]];portConstraint=eastwest;html=1;" vertex="1" parent="1">
          <mxGeometry x="-160" y="440" width="80" height="26" as="geometry" />
        </mxCell>
        <mxCell id="leUHGMja3gvNcQxxa3rt-89" value="" style="endArrow=diamondThin;endFill=0;endSize=24;html=1;rounded=0;exitX=0;exitY=0.25;exitDx=0;exitDy=0;entryX=1;entryY=0.5;entryDx=0;entryDy=0;" edge="1" parent="1" source="leUHGMja3gvNcQxxa3rt-2" target="leUHGMja3gvNcQxxa3rt-90">
          <mxGeometry width="160" relative="1" as="geometry">
            <mxPoint x="400" y="740" as="sourcePoint" />
            <mxPoint y="490" as="targetPoint" />
          </mxGeometry>
        </mxCell>
        <mxCell id="leUHGMja3gvNcQxxa3rt-90" value="cliente_login" style="text;align=center;fontStyle=1;verticalAlign=middle;spacingLeft=3;spacingRight=3;strokeColor=none;rotatable=0;points=[[0,0.5],[1,0.5]];portConstraint=eastwest;html=1;" vertex="1" parent="1">
          <mxGeometry x="-130" y="460" width="80" height="26" as="geometry" />
        </mxCell>
        <mxCell id="leUHGMja3gvNcQxxa3rt-95" value="" style="endArrow=diamondThin;endFill=0;endSize=24;html=1;rounded=0;exitX=0;exitY=0.75;exitDx=0;exitDy=0;" edge="1" parent="1" source="leUHGMja3gvNcQxxa3rt-2">
          <mxGeometry width="160" relative="1" as="geometry">
            <mxPoint x="-20" y="540" as="sourcePoint" />
            <mxPoint x="-1" y="506.2079207920792" as="targetPoint" />
          </mxGeometry>
        </mxCell>
        <mxCell id="leUHGMja3gvNcQxxa3rt-99" value="cod_perguntas" style="text;align=center;fontStyle=1;verticalAlign=middle;spacingLeft=3;spacingRight=3;strokeColor=none;rotatable=0;points=[[0,0.5],[1,0.5]];portConstraint=eastwest;html=1;" vertex="1" parent="1">
          <mxGeometry x="400" y="85.99999999999994" width="80" height="26" as="geometry" />
        </mxCell>
        <mxCell id="leUHGMja3gvNcQxxa3rt-100" value="" style="endArrow=diamondThin;endFill=0;endSize=24;html=1;rounded=0;exitX=0.5;exitY=0;exitDx=0;exitDy=0;" edge="1" parent="1" source="leUHGMja3gvNcQxxa3rt-58">
          <mxGeometry width="160" relative="1" as="geometry">
            <mxPoint x="540" y="92.33000000000001" as="sourcePoint" />
            <mxPoint x="460" y="120" as="targetPoint" />
          </mxGeometry>
        </mxCell>
        <mxCell id="leUHGMja3gvNcQxxa3rt-101" value="cod_questionarios" style="text;align=center;fontStyle=1;verticalAlign=middle;spacingLeft=3;spacingRight=3;strokeColor=none;rotatable=0;points=[[0,0.5],[1,0.5]];portConstraint=eastwest;html=1;" vertex="1" parent="1">
          <mxGeometry x="460" y="99.99999999999994" width="80" height="26" as="geometry" />
        </mxCell>
        <mxCell id="leUHGMja3gvNcQxxa3rt-102" value="" style="endArrow=diamondThin;endFill=0;endSize=24;html=1;rounded=0;exitX=0.5;exitY=0;exitDx=0;exitDy=0;entryX=0.25;entryY=0.923;entryDx=0;entryDy=0;entryPerimeter=0;" edge="1" parent="1" source="leUHGMja3gvNcQxxa3rt-6" target="leUHGMja3gvNcQxxa3rt-79">
          <mxGeometry width="160" relative="1" as="geometry">
            <mxPoint x="400" y="190" as="sourcePoint" />
            <mxPoint x="400" y="120" as="targetPoint" />
          </mxGeometry>
        </mxCell>
        <mxCell id="leUHGMja3gvNcQxxa3rt-103" value="" style="endArrow=diamondThin;endFill=0;endSize=24;html=1;rounded=0;exitX=0.75;exitY=0;exitDx=0;exitDy=0;" edge="1" parent="1" source="leUHGMja3gvNcQxxa3rt-6">
          <mxGeometry width="160" relative="1" as="geometry">
            <mxPoint x="410" y="200" as="sourcePoint" />
            <mxPoint x="140" y="140" as="targetPoint" />
          </mxGeometry>
        </mxCell>
        <mxCell id="leUHGMja3gvNcQxxa3rt-104" value="descricao" style="text;align=center;fontStyle=1;verticalAlign=middle;spacingLeft=3;spacingRight=3;strokeColor=none;rotatable=0;points=[[0,0.5],[1,0.5]];portConstraint=eastwest;html=1;" vertex="1" parent="1">
          <mxGeometry x="110" y="119.99999999999994" width="80" height="26" as="geometry" />
        </mxCell>
        <mxCell id="leUHGMja3gvNcQxxa3rt-105" value="" style="endArrow=diamondThin;endFill=0;endSize=24;html=1;rounded=0;exitX=0.75;exitY=0;exitDx=0;exitDy=0;" edge="1" parent="1" source="leUHGMja3gvNcQxxa3rt-58">
          <mxGeometry width="160" relative="1" as="geometry">
            <mxPoint x="540" y="168" as="sourcePoint" />
            <mxPoint x="490" y="130" as="targetPoint" />
          </mxGeometry>
        </mxCell>
        <mxCell id="leUHGMja3gvNcQxxa3rt-106" value="questionarios_descricao" style="text;align=center;fontStyle=1;verticalAlign=middle;spacingLeft=3;spacingRight=3;strokeColor=none;rotatable=0;points=[[0,0.5],[1,0.5]];portConstraint=eastwest;html=1;" vertex="1" parent="1">
          <mxGeometry x="510" y="111.99999999999994" width="80" height="26" as="geometry" />
        </mxCell>
        <mxCell id="leUHGMja3gvNcQxxa3rt-113" value="" style="endArrow=diamondThin;endFill=1;endSize=24;html=1;rounded=0;exitX=0.25;exitY=0;exitDx=0;exitDy=0;" edge="1" parent="1" source="leUHGMja3gvNcQxxa3rt-59">
          <mxGeometry width="160" relative="1" as="geometry">
            <mxPoint x="718.6700000000001" y="116" as="sourcePoint" />
            <mxPoint x="710" y="110" as="targetPoint" />
          </mxGeometry>
        </mxCell>
        <mxCell id="leUHGMja3gvNcQxxa3rt-114" value="" style="endArrow=diamondThin;endFill=0;endSize=24;html=1;rounded=0;exitX=0.5;exitY=0;exitDx=0;exitDy=0;" edge="1" parent="1" source="leUHGMja3gvNcQxxa3rt-59">
          <mxGeometry width="160" relative="1" as="geometry">
            <mxPoint x="760" y="126" as="sourcePoint" />
            <mxPoint x="740" y="120" as="targetPoint" />
          </mxGeometry>
        </mxCell>
        <mxCell id="leUHGMja3gvNcQxxa3rt-115" value="" style="endArrow=diamondThin;endFill=0;endSize=24;html=1;rounded=0;exitX=0.75;exitY=0;exitDx=0;exitDy=0;" edge="1" parent="1" source="leUHGMja3gvNcQxxa3rt-59">
          <mxGeometry width="160" relative="1" as="geometry">
            <mxPoint x="800" y="155" as="sourcePoint" />
            <mxPoint x="770" y="130" as="targetPoint" />
          </mxGeometry>
        </mxCell>
        <mxCell id="leUHGMja3gvNcQxxa3rt-116" value="cod_respostas" style="text;align=center;fontStyle=1;verticalAlign=middle;spacingLeft=3;spacingRight=3;strokeColor=none;rotatable=0;points=[[0,0.5],[1,0.5]];portConstraint=eastwest;html=1;" vertex="1" parent="1">
          <mxGeometry x="680" y="85.99999999999994" width="80" height="26" as="geometry" />
        </mxCell>
        <mxCell id="leUHGMja3gvNcQxxa3rt-117" value="perguntas_descricao" style="text;align=center;fontStyle=1;verticalAlign=middle;spacingLeft=3;spacingRight=3;strokeColor=none;rotatable=0;points=[[0,0.5],[1,0.5]];portConstraint=eastwest;html=1;" vertex="1" parent="1">
          <mxGeometry x="740" y="99.99999999999994" width="80" height="26" as="geometry" />
        </mxCell>
        <mxCell id="leUHGMja3gvNcQxxa3rt-118" value="cod_perguntas" style="text;align=center;fontStyle=1;verticalAlign=middle;spacingLeft=3;spacingRight=3;strokeColor=none;rotatable=0;points=[[0,0.5],[1,0.5]];portConstraint=eastwest;html=1;" vertex="1" parent="1">
          <mxGeometry x="760" y="111.99999999999994" width="80" height="26" as="geometry" />
        </mxCell>
        <mxCell id="leUHGMja3gvNcQxxa3rt-119" value="" style="endArrow=diamondThin;endFill=0;endSize=24;html=1;rounded=0;exitX=0.25;exitY=1;exitDx=0;exitDy=0;" edge="1" parent="1" source="leUHGMja3gvNcQxxa3rt-33">
          <mxGeometry width="160" relative="1" as="geometry">
            <mxPoint x="-10" y="665" as="sourcePoint" />
            <mxPoint x="40" y="680" as="targetPoint" />
          </mxGeometry>
        </mxCell>
        <mxCell id="leUHGMja3gvNcQxxa3rt-120" value="" style="endArrow=diamondThin;endFill=0;endSize=24;html=1;rounded=0;exitX=0.75;exitY=1;exitDx=0;exitDy=0;" edge="1" parent="1" source="leUHGMja3gvNcQxxa3rt-33">
          <mxGeometry width="160" relative="1" as="geometry">
            <mxPoint x="60" y="665" as="sourcePoint" />
            <mxPoint x="80" y="680" as="targetPoint" />
          </mxGeometry>
        </mxCell>
        <mxCell id="leUHGMja3gvNcQxxa3rt-121" value="CPF" style="text;align=center;fontStyle=1;verticalAlign=middle;spacingLeft=3;spacingRight=3;strokeColor=none;rotatable=0;points=[[0,0.5],[1,0.5]];portConstraint=eastwest;html=1;" vertex="1" parent="1">
          <mxGeometry y="680" width="80" height="26" as="geometry" />
        </mxCell>
        <mxCell id="leUHGMja3gvNcQxxa3rt-122" value="RG" style="text;align=center;fontStyle=1;verticalAlign=middle;spacingLeft=3;spacingRight=3;strokeColor=none;rotatable=0;points=[[0,0.5],[1,0.5]];portConstraint=eastwest;html=1;" vertex="1" parent="1">
          <mxGeometry x="40" y="680" width="80" height="26" as="geometry" />
        </mxCell>
        <mxCell id="leUHGMja3gvNcQxxa3rt-123" value="" style="endArrow=diamondThin;endFill=0;endSize=24;html=1;rounded=0;exitX=0.25;exitY=1;exitDx=0;exitDy=0;" edge="1" parent="1" source="leUHGMja3gvNcQxxa3rt-38">
          <mxGeometry width="160" relative="1" as="geometry">
            <mxPoint x="160" y="673" as="sourcePoint" />
            <mxPoint x="160" y="680" as="targetPoint" />
          </mxGeometry>
        </mxCell>
        <mxCell id="leUHGMja3gvNcQxxa3rt-124" value="" style="endArrow=diamondThin;endFill=0;endSize=24;html=1;rounded=0;exitX=0.75;exitY=1;exitDx=0;exitDy=0;" edge="1" parent="1" source="leUHGMja3gvNcQxxa3rt-38">
          <mxGeometry width="160" relative="1" as="geometry">
            <mxPoint x="200" y="673" as="sourcePoint" />
            <mxPoint x="200" y="680" as="targetPoint" />
          </mxGeometry>
        </mxCell>
        <mxCell id="leUHGMja3gvNcQxxa3rt-125" value="CNPJ" style="text;align=center;fontStyle=1;verticalAlign=middle;spacingLeft=3;spacingRight=3;strokeColor=none;rotatable=0;points=[[0,0.5],[1,0.5]];portConstraint=eastwest;html=1;" vertex="1" parent="1">
          <mxGeometry x="120" y="680" width="80" height="26" as="geometry" />
        </mxCell>
        <mxCell id="leUHGMja3gvNcQxxa3rt-126" value="IE" style="text;align=center;fontStyle=1;verticalAlign=middle;spacingLeft=3;spacingRight=3;strokeColor=none;rotatable=0;points=[[0,0.5],[1,0.5]];portConstraint=eastwest;html=1;" vertex="1" parent="1">
          <mxGeometry x="160" y="680" width="80" height="26" as="geometry" />
        </mxCell>
        <mxCell id="leUHGMja3gvNcQxxa3rt-127" value="" style="endArrow=diamondThin;endFill=1;endSize=24;html=1;rounded=0;exitX=0.5;exitY=1;exitDx=0;exitDy=0;" edge="1" parent="1" source="leUHGMja3gvNcQxxa3rt-4">
          <mxGeometry width="160" relative="1" as="geometry">
            <mxPoint x="610" y="850" as="sourcePoint" />
            <mxPoint x="690" y="910" as="targetPoint" />
          </mxGeometry>
        </mxCell>
        <mxCell id="leUHGMja3gvNcQxxa3rt-128" value="" style="endArrow=diamondThin;endFill=0;endSize=24;html=1;rounded=0;exitX=0.25;exitY=1;exitDx=0;exitDy=0;" edge="1" parent="1" source="leUHGMja3gvNcQxxa3rt-4">
          <mxGeometry width="160" relative="1" as="geometry">
            <mxPoint x="690" y="900" as="sourcePoint" />
            <mxPoint x="660" y="890" as="targetPoint" />
          </mxGeometry>
        </mxCell>
        <mxCell id="leUHGMja3gvNcQxxa3rt-129" value="" style="endArrow=diamondThin;endFill=0;endSize=24;html=1;rounded=0;exitX=0.75;exitY=1;exitDx=0;exitDy=0;" edge="1" parent="1" source="leUHGMja3gvNcQxxa3rt-4">
          <mxGeometry width="160" relative="1" as="geometry">
            <mxPoint x="740" y="890" as="sourcePoint" />
            <mxPoint x="720" y="890" as="targetPoint" />
          </mxGeometry>
        </mxCell>
        <mxCell id="leUHGMja3gvNcQxxa3rt-130" value="cod_editoras" style="text;align=center;fontStyle=1;verticalAlign=middle;spacingLeft=3;spacingRight=3;strokeColor=none;rotatable=0;points=[[0,0.5],[1,0.5]];portConstraint=eastwest;html=1;" vertex="1" parent="1">
          <mxGeometry x="650" y="920" width="80" height="26" as="geometry" />
        </mxCell>
        <mxCell id="leUHGMja3gvNcQxxa3rt-131" value="telefone" style="text;align=center;fontStyle=1;verticalAlign=middle;spacingLeft=3;spacingRight=3;strokeColor=none;rotatable=0;points=[[0,0.5],[1,0.5]];portConstraint=eastwest;html=1;" vertex="1" parent="1">
          <mxGeometry x="701.25" y="894" width="80" height="26" as="geometry" />
        </mxCell>
        <mxCell id="leUHGMja3gvNcQxxa3rt-133" value="email" style="text;align=center;fontStyle=1;verticalAlign=middle;spacingLeft=3;spacingRight=3;strokeColor=none;rotatable=0;points=[[0,0.5],[1,0.5]];portConstraint=eastwest;html=1;" vertex="1" parent="1">
          <mxGeometry x="610" y="894" width="80" height="26" as="geometry" />
        </mxCell>
        <mxCell id="leUHGMja3gvNcQxxa3rt-135" value="pedidos" style="rounded=0;whiteSpace=wrap;html=1;" vertex="1" parent="1">
          <mxGeometry x="410" y="460" width="120" height="60" as="geometry" />
        </mxCell>
        <mxCell id="leUHGMja3gvNcQxxa3rt-136" value="ebooks" style="rounded=0;whiteSpace=wrap;html=1;" vertex="1" parent="1">
          <mxGeometry x="690" y="460" width="120" height="60" as="geometry" />
        </mxCell>
        <mxCell id="leUHGMja3gvNcQxxa3rt-137" value="armazenamentos" style="rounded=0;whiteSpace=wrap;html=1;" vertex="1" parent="1">
          <mxGeometry x="930" y="460" width="120" height="60" as="geometry" />
        </mxCell>
        <mxCell id="leUHGMja3gvNcQxxa3rt-141" value="" style="edgeStyle=entityRelationEdgeStyle;fontSize=12;html=1;endArrow=ERzeroToMany;startArrow=ERmandOne;rounded=0;entryX=0.5;entryY=1;entryDx=0;entryDy=0;exitX=0.5;exitY=0;exitDx=0;exitDy=0;" edge="1" parent="1" source="leUHGMja3gvNcQxxa3rt-2" target="leUHGMja3gvNcQxxa3rt-6">
          <mxGeometry width="100" height="100" relative="1" as="geometry">
            <mxPoint x="210" y="380" as="sourcePoint" />
            <mxPoint x="270" y="250" as="targetPoint" />
          </mxGeometry>
        </mxCell>
        <mxCell id="leUHGMja3gvNcQxxa3rt-142" value="" style="edgeStyle=entityRelationEdgeStyle;fontSize=12;html=1;endArrow=ERzeroToMany;endFill=1;startArrow=ERzeroToMany;rounded=0;exitX=1;exitY=0.5;exitDx=0;exitDy=0;entryX=0;entryY=0.5;entryDx=0;entryDy=0;" edge="1" parent="1" source="leUHGMja3gvNcQxxa3rt-135" target="leUHGMja3gvNcQxxa3rt-136">
          <mxGeometry width="100" height="100" relative="1" as="geometry">
            <mxPoint x="530" y="550" as="sourcePoint" />
            <mxPoint x="630" y="450" as="targetPoint" />
          </mxGeometry>
        </mxCell>
        <mxCell id="leUHGMja3gvNcQxxa3rt-143" value="" style="edgeStyle=entityRelationEdgeStyle;fontSize=12;html=1;endArrow=ERoneToMany;startArrow=ERmandOne;rounded=0;exitX=0.5;exitY=0;exitDx=0;exitDy=0;entryX=0;entryY=1;entryDx=0;entryDy=0;" edge="1" parent="1" source="leUHGMja3gvNcQxxa3rt-159" target="leUHGMja3gvNcQxxa3rt-136">
          <mxGeometry width="100" height="100" relative="1" as="geometry">
            <mxPoint x="780" y="550" as="sourcePoint" />
            <mxPoint x="880" y="450" as="targetPoint" />
          </mxGeometry>
        </mxCell>
        <mxCell id="leUHGMja3gvNcQxxa3rt-144" value="" style="edgeStyle=entityRelationEdgeStyle;fontSize=12;html=1;endArrow=ERzeroToMany;startArrow=ERmandOne;rounded=0;exitX=1;exitY=0.5;exitDx=0;exitDy=0;entryX=0;entryY=0.5;entryDx=0;entryDy=0;" edge="1" parent="1" source="leUHGMja3gvNcQxxa3rt-136" target="leUHGMja3gvNcQxxa3rt-137">
          <mxGeometry width="100" height="100" relative="1" as="geometry">
            <mxPoint x="880" y="550" as="sourcePoint" />
            <mxPoint x="980" y="450" as="targetPoint" />
          </mxGeometry>
        </mxCell>
        <mxCell id="leUHGMja3gvNcQxxa3rt-149" value="" style="endArrow=diamondThin;endFill=1;endSize=24;html=1;rounded=0;exitX=1;exitY=0.5;exitDx=0;exitDy=0;" edge="1" parent="1" source="leUHGMja3gvNcQxxa3rt-137">
          <mxGeometry width="160" relative="1" as="geometry">
            <mxPoint x="1060" y="560" as="sourcePoint" />
            <mxPoint x="1110" y="490" as="targetPoint" />
          </mxGeometry>
        </mxCell>
        <mxCell id="leUHGMja3gvNcQxxa3rt-150" value="cod_armazenamentos" style="text;align=center;fontStyle=1;verticalAlign=middle;spacingLeft=3;spacingRight=3;strokeColor=none;rotatable=0;points=[[0,0.5],[1,0.5]];portConstraint=eastwest;html=1;" vertex="1" parent="1">
          <mxGeometry x="1135" y="477" width="80" height="26" as="geometry" />
        </mxCell>
        <mxCell id="leUHGMja3gvNcQxxa3rt-151" value="" style="endArrow=diamondThin;endFill=0;endSize=24;html=1;rounded=0;exitX=1;exitY=0.75;exitDx=0;exitDy=0;" edge="1" parent="1" source="leUHGMja3gvNcQxxa3rt-137">
          <mxGeometry width="160" relative="1" as="geometry">
            <mxPoint x="1090" y="593.75" as="sourcePoint" />
            <mxPoint x="1090" y="505" as="targetPoint" />
          </mxGeometry>
        </mxCell>
        <mxCell id="leUHGMja3gvNcQxxa3rt-152" value="" style="endArrow=diamondThin;endFill=0;endSize=24;html=1;rounded=0;exitX=1;exitY=0.25;exitDx=0;exitDy=0;" edge="1" parent="1" source="leUHGMja3gvNcQxxa3rt-137">
          <mxGeometry width="160" relative="1" as="geometry">
            <mxPoint x="1074" y="440.5" as="sourcePoint" />
            <mxPoint x="1090" y="475" as="targetPoint" />
          </mxGeometry>
        </mxCell>
        <mxCell id="leUHGMja3gvNcQxxa3rt-154" value="" style="endArrow=diamondThin;endFill=1;endSize=24;html=1;rounded=0;exitX=0.75;exitY=1;exitDx=0;exitDy=0;" edge="1" parent="1" source="leUHGMja3gvNcQxxa3rt-136">
          <mxGeometry width="160" relative="1" as="geometry">
            <mxPoint x="760" y="533.75" as="sourcePoint" />
            <mxPoint x="780" y="580" as="targetPoint" />
          </mxGeometry>
        </mxCell>
        <mxCell id="leUHGMja3gvNcQxxa3rt-155" value="" style="endArrow=diamondThin;endFill=0;endSize=24;html=1;rounded=0;exitX=1;exitY=1;exitDx=0;exitDy=0;" edge="1" parent="1" source="leUHGMja3gvNcQxxa3rt-136">
          <mxGeometry width="160" relative="1" as="geometry">
            <mxPoint x="870" y="580" as="sourcePoint" />
            <mxPoint x="810" y="560" as="targetPoint" />
          </mxGeometry>
        </mxCell>
        <mxCell id="leUHGMja3gvNcQxxa3rt-156" value="" style="endArrow=diamondThin;endFill=0;endSize=24;html=1;rounded=0;exitX=0.5;exitY=1;exitDx=0;exitDy=0;" edge="1" parent="1" source="leUHGMja3gvNcQxxa3rt-136">
          <mxGeometry width="160" relative="1" as="geometry">
            <mxPoint x="780.25" y="600" as="sourcePoint" />
            <mxPoint x="750" y="560" as="targetPoint" />
          </mxGeometry>
        </mxCell>
        <mxCell id="leUHGMja3gvNcQxxa3rt-157" value="cod_ebooks" style="text;align=center;fontStyle=1;verticalAlign=middle;spacingLeft=3;spacingRight=3;strokeColor=none;rotatable=0;points=[[0,0.5],[1,0.5]];portConstraint=eastwest;html=1;" vertex="1" parent="1">
          <mxGeometry x="742" y="580" width="80" height="26" as="geometry" />
        </mxCell>
        <mxCell id="leUHGMja3gvNcQxxa3rt-158" value="cod_ebooks" style="text;align=center;fontStyle=1;verticalAlign=middle;spacingLeft=3;spacingRight=3;strokeColor=none;rotatable=0;points=[[0,0.5],[1,0.5]];portConstraint=eastwest;html=1;" vertex="1" parent="1">
          <mxGeometry x="830" y="659" width="80" height="26" as="geometry" />
        </mxCell>
        <mxCell id="leUHGMja3gvNcQxxa3rt-160" value="" style="edgeStyle=entityRelationEdgeStyle;fontSize=12;html=1;endArrow=ERoneToMany;startArrow=ERmandOne;rounded=0;exitX=0.5;exitY=0;exitDx=0;exitDy=0;entryX=0;entryY=1;entryDx=0;entryDy=0;" edge="1" parent="1" source="leUHGMja3gvNcQxxa3rt-4" target="leUHGMja3gvNcQxxa3rt-159">
          <mxGeometry width="100" height="100" relative="1" as="geometry">
            <mxPoint x="690" y="790" as="sourcePoint" />
            <mxPoint x="690" y="520" as="targetPoint" />
          </mxGeometry>
        </mxCell>
        <mxCell id="leUHGMja3gvNcQxxa3rt-159" value="ebooks_editoras" style="rounded=0;whiteSpace=wrap;html=1;" vertex="1" parent="1">
          <mxGeometry x="670" y="650" width="120" height="60" as="geometry" />
        </mxCell>
        <mxCell id="leUHGMja3gvNcQxxa3rt-161" value="" style="endArrow=diamondThin;endFill=1;endSize=24;html=1;rounded=0;exitX=1.008;exitY=0.4;exitDx=0;exitDy=0;exitPerimeter=0;" edge="1" parent="1" source="leUHGMja3gvNcQxxa3rt-159">
          <mxGeometry width="160" relative="1" as="geometry">
            <mxPoint x="860" y="720" as="sourcePoint" />
            <mxPoint x="840" y="673" as="targetPoint" />
          </mxGeometry>
        </mxCell>
        <mxCell id="leUHGMja3gvNcQxxa3rt-162" value="" style="endArrow=diamondThin;endFill=1;endSize=24;html=1;rounded=0;exitX=1;exitY=0.75;exitDx=0;exitDy=0;" edge="1" parent="1" source="leUHGMja3gvNcQxxa3rt-159">
          <mxGeometry width="160" relative="1" as="geometry">
            <mxPoint x="837" y="700" as="sourcePoint" />
            <mxPoint x="840" y="695" as="targetPoint" />
          </mxGeometry>
        </mxCell>
        <mxCell id="leUHGMja3gvNcQxxa3rt-163" value="cod_editoras" style="text;align=center;fontStyle=1;verticalAlign=middle;spacingLeft=3;spacingRight=3;strokeColor=none;rotatable=0;points=[[0,0.5],[1,0.5]];portConstraint=eastwest;html=1;" vertex="1" parent="1">
          <mxGeometry x="840" y="681" width="80" height="26" as="geometry" />
        </mxCell>
        <mxCell id="leUHGMja3gvNcQxxa3rt-165" value="cod_ebooks" style="text;align=center;fontStyle=1;verticalAlign=middle;spacingLeft=3;spacingRight=3;strokeColor=none;rotatable=0;points=[[0,0.5],[1,0.5]];portConstraint=eastwest;html=1;" vertex="1" parent="1">
          <mxGeometry x="1082" y="461" width="80" height="26" as="geometry" />
        </mxCell>
        <mxCell id="leUHGMja3gvNcQxxa3rt-166" value="" style="endArrow=diamondThin;endFill=1;endSize=24;html=1;rounded=0;exitX=0.5;exitY=1;exitDx=0;exitDy=0;" edge="1" parent="1" source="leUHGMja3gvNcQxxa3rt-135">
          <mxGeometry width="160" relative="1" as="geometry">
            <mxPoint x="310" y="427" as="sourcePoint" />
            <mxPoint x="470" y="580" as="targetPoint" />
          </mxGeometry>
        </mxCell>
        <mxCell id="leUHGMja3gvNcQxxa3rt-167" value="cod_pedidos" style="text;align=center;fontStyle=1;verticalAlign=middle;spacingLeft=3;spacingRight=3;strokeColor=none;rotatable=0;points=[[0,0.5],[1,0.5]];portConstraint=eastwest;html=1;" vertex="1" parent="1">
          <mxGeometry x="430" y="580" width="80" height="26" as="geometry" />
        </mxCell>
        <mxCell id="leUHGMja3gvNcQxxa3rt-168" value="" style="endArrow=diamondThin;endFill=0;endSize=24;html=1;rounded=0;exitX=0.25;exitY=1;exitDx=0;exitDy=0;" edge="1" parent="1" source="leUHGMja3gvNcQxxa3rt-135">
          <mxGeometry width="160" relative="1" as="geometry">
            <mxPoint x="424" y="540" as="sourcePoint" />
            <mxPoint x="440" y="560" as="targetPoint" />
          </mxGeometry>
        </mxCell>
        <mxCell id="leUHGMja3gvNcQxxa3rt-169" value="" style="endArrow=diamondThin;endFill=0;endSize=24;html=1;rounded=0;exitX=0.75;exitY=1;exitDx=0;exitDy=0;" edge="1" parent="1" source="leUHGMja3gvNcQxxa3rt-135">
          <mxGeometry width="160" relative="1" as="geometry">
            <mxPoint x="409" y="606" as="sourcePoint" />
            <mxPoint x="500" y="560" as="targetPoint" />
          </mxGeometry>
        </mxCell>
        <mxCell id="leUHGMja3gvNcQxxa3rt-170" value="data" style="text;align=center;fontStyle=1;verticalAlign=middle;spacingLeft=3;spacingRight=3;strokeColor=none;rotatable=0;points=[[0,0.5],[1,0.5]];portConstraint=eastwest;html=1;" vertex="1" parent="1">
          <mxGeometry x="400" y="558.25" width="80" height="26" as="geometry" />
        </mxCell>
        <mxCell id="leUHGMja3gvNcQxxa3rt-171" value="valor_pedido" style="text;align=center;fontStyle=1;verticalAlign=middle;spacingLeft=3;spacingRight=3;strokeColor=none;rotatable=0;points=[[0,0.5],[1,0.5]];portConstraint=eastwest;html=1;" vertex="1" parent="1">
          <mxGeometry x="480" y="558.25" width="80" height="26" as="geometry" />
        </mxCell>
        <mxCell id="leUHGMja3gvNcQxxa3rt-172" value="" style="edgeStyle=entityRelationEdgeStyle;fontSize=12;html=1;endArrow=ERoneToMany;startArrow=ERoneToMany;rounded=0;exitX=0.5;exitY=0;exitDx=0;exitDy=0;entryX=0.5;entryY=1;entryDx=0;entryDy=0;" edge="1" parent="1" source="leUHGMja3gvNcQxxa3rt-173" target="leUHGMja3gvNcQxxa3rt-59">
          <mxGeometry width="100" height="100" relative="1" as="geometry">
            <mxPoint x="700" y="420" as="sourcePoint" />
            <mxPoint x="800" y="320" as="targetPoint" />
          </mxGeometry>
        </mxCell>
        <mxCell id="leUHGMja3gvNcQxxa3rt-174" value="" style="edgeStyle=entityRelationEdgeStyle;fontSize=12;html=1;endArrow=ERoneToMany;startArrow=ERoneToMany;rounded=0;exitX=0.5;exitY=0;exitDx=0;exitDy=0;entryX=0.5;entryY=1;entryDx=0;entryDy=0;" edge="1" parent="1" source="leUHGMja3gvNcQxxa3rt-136" target="leUHGMja3gvNcQxxa3rt-173">
          <mxGeometry width="100" height="100" relative="1" as="geometry">
            <mxPoint x="750" y="460" as="sourcePoint" />
            <mxPoint x="740" y="240" as="targetPoint" />
          </mxGeometry>
        </mxCell>
        <mxCell id="leUHGMja3gvNcQxxa3rt-173" value="ebooks_respostas" style="rounded=0;whiteSpace=wrap;html=1;" vertex="1" parent="1">
          <mxGeometry x="690" y="320" width="120" height="60" as="geometry" />
        </mxCell>
        <mxCell id="leUHGMja3gvNcQxxa3rt-175" value="" style="endArrow=diamondThin;endFill=1;endSize=24;html=1;rounded=0;exitX=1;exitY=0.25;exitDx=0;exitDy=0;" edge="1" parent="1" source="leUHGMja3gvNcQxxa3rt-173">
          <mxGeometry width="160" relative="1" as="geometry">
            <mxPoint x="890" y="300" as="sourcePoint" />
            <mxPoint x="860" y="335" as="targetPoint" />
          </mxGeometry>
        </mxCell>
        <mxCell id="leUHGMja3gvNcQxxa3rt-177" value="cod_ebooks" style="text;align=center;fontStyle=1;verticalAlign=middle;spacingLeft=3;spacingRight=3;strokeColor=none;rotatable=0;points=[[0,0.5],[1,0.5]];portConstraint=eastwest;html=1;" vertex="1" parent="1">
          <mxGeometry x="856" y="352" width="80" height="26" as="geometry" />
        </mxCell>
        <mxCell id="leUHGMja3gvNcQxxa3rt-178" value="" style="endArrow=diamondThin;endFill=1;endSize=24;html=1;rounded=0;exitX=1;exitY=0.75;exitDx=0;exitDy=0;" edge="1" parent="1" source="leUHGMja3gvNcQxxa3rt-173">
          <mxGeometry width="160" relative="1" as="geometry">
            <mxPoint x="820" y="345" as="sourcePoint" />
            <mxPoint x="860" y="365" as="targetPoint" />
          </mxGeometry>
        </mxCell>
        <mxCell id="leUHGMja3gvNcQxxa3rt-180" value="cod_respostas" style="text;align=center;fontStyle=1;verticalAlign=middle;spacingLeft=3;spacingRight=3;strokeColor=none;rotatable=0;points=[[0,0.5],[1,0.5]];portConstraint=eastwest;html=1;" vertex="1" parent="1">
          <mxGeometry x="863" y="322" width="80" height="26" as="geometry" />
        </mxCell>
        <mxCell id="leUHGMja3gvNcQxxa3rt-181" value="nome" style="text;align=center;fontStyle=1;verticalAlign=middle;spacingLeft=3;spacingRight=3;strokeColor=none;rotatable=0;points=[[0,0.5],[1,0.5]];portConstraint=eastwest;html=1;" vertex="1" parent="1">
          <mxGeometry x="770" y="558.25" width="80" height="26" as="geometry" />
        </mxCell>
        <mxCell id="leUHGMja3gvNcQxxa3rt-182" value="autor" style="text;align=center;fontStyle=1;verticalAlign=middle;spacingLeft=3;spacingRight=3;strokeColor=none;rotatable=0;points=[[0,0.5],[1,0.5]];portConstraint=eastwest;html=1;" vertex="1" parent="1">
          <mxGeometry x="710" y="559" width="80" height="26" as="geometry" />
        </mxCell>
        <mxCell id="leUHGMja3gvNcQxxa3rt-183" value="estantes" style="text;align=center;fontStyle=1;verticalAlign=middle;spacingLeft=3;spacingRight=3;strokeColor=none;rotatable=0;points=[[0,0.5],[1,0.5]];portConstraint=eastwest;html=1;" vertex="1" parent="1">
          <mxGeometry x="1076" y="494" width="80" height="26" as="geometry" />
        </mxCell>
        <mxCell id="leUHGMja3gvNcQxxa3rt-184" value="datanasc" style="text;align=center;fontStyle=1;verticalAlign=middle;spacingLeft=3;spacingRight=3;strokeColor=none;rotatable=0;points=[[0,0.5],[1,0.5]];portConstraint=eastwest;html=1;" vertex="1" parent="1">
          <mxGeometry x="-92" y="477" width="80" height="26" as="geometry" />
        </mxCell>
        <mxCell id="leUHGMja3gvNcQxxa3rt-185" value="nome" style="text;align=center;fontStyle=1;verticalAlign=middle;spacingLeft=3;spacingRight=3;strokeColor=none;rotatable=0;points=[[0,0.5],[1,0.5]];portConstraint=eastwest;html=1;" vertex="1" parent="1">
          <mxGeometry x="-65" y="494" width="80" height="26" as="geometry" />
        </mxCell>
      </root>
    </mxGraphModel>
  </diagram>
</mxfile>
